<svg width="13" height="10" fill="none" xmlns="http://www.w3.org/2000/svg"><mask id="a" maskUnits="userSpaceOnUse" x="0" y="0" width="13" height="10" fill="#000"><path fill="#fff" d="M0 0h13v10H0z"/><path d="M4.496 7.312 1.888 4.824 1 5.665 4.496 9 12 1.841 11.118 1 4.496 7.312Z"/></mask><path d="M4.496 7.312 1.888 4.824 1 5.665 4.496 9 12 1.841 11.118 1 4.496 7.312Z" fill="#fff"/><path d="m4.496 7.312-.138.144.138.132.138-.132-.138-.144ZM1.888 4.824l.138-.145-.138-.13-.138.13.138.145ZM1 5.665.862 5.52l-.152.145.152.145L1 5.665ZM4.496 9l-.138.145.138.131.138-.131L4.496 9ZM12 1.841l.138.145.152-.145-.152-.145-.138.145ZM11.118 1l.138-.145-.138-.131-.138.131.138.145ZM4.634 7.167 2.026 4.679l-.276.29 2.608 2.487.276-.289ZM1.75 4.679l-.888.841.276.29.888-.84-.276-.291Zm-.888 1.13 3.496 3.336.276-.29L1.138 5.52l-.276.29Zm3.772 3.336 7.504-7.16-.276-.289-7.504 7.16.276.289Zm7.504-7.449-.882-.84-.276.289.882.84.276-.289ZM10.98.856l-6.622 6.31.276.29 6.622-6.311-.276-.29Z" fill="#fff" mask="url(#a)"/></svg>